<svg xmlns="http://www.w3.org/2000/svg" xmlns:xlink="http://www.w3.org/1999/xlink" width="50" zoomAndPan="magnify" viewBox="0 0 37.5 37.499999" height="50" preserveAspectRatio="xMidYMid meet" version="1.0"><defs><clipPath id="id1"><path d="M 0.988281 0.988281 L 36.238281 0.988281 L 36.238281 36.238281 L 0.988281 36.238281 Z M 0.988281 0.988281 " clip-rule="nonzero"/></clipPath></defs><path fill="#2aa79e" d="M 25.941406 29.5625 L 26.945312 27.902344 C 27.078125 27.6875 27.117188 27.292969 27.035156 27.035156 L 26.03125 23.980469 L 26.550781 23.453125 C 26.550781 23.453125 26.550781 23.453125 26.597656 23.410156 C 26.816406 23.453125 27.078125 23.410156 27.25 23.238281 C 27.511719 22.976562 27.511719 22.539062 27.25 22.234375 L 26.421875 21.402344 C 26.160156 21.140625 25.726562 21.140625 25.417969 21.402344 C 25.332031 21.492188 25.289062 21.578125 25.242188 21.667969 L 24.109375 18.304688 C 24.0625 18.222656 24.023438 18.132812 23.980469 18.089844 L 27.164062 14.90625 C 28.078125 13.773438 29.648438 11.152344 28.996094 10.5 C 28.34375 9.84375 25.683594 11.371094 24.589844 12.328125 L 21.402344 15.515625 C 21.359375 15.472656 21.320312 15.382812 21.1875 15.382812 L 17.828125 14.25 C 17.914062 14.207031 18.003906 14.164062 18.089844 14.074219 C 18.351562 13.816406 18.351562 13.378906 18.089844 13.074219 L 17.261719 12.246094 C 16.996094 11.980469 16.5625 11.980469 16.257812 12.246094 C 16.085938 12.417969 15.996094 12.679688 16.085938 12.898438 C 16.085938 12.898438 16.085938 12.898438 16.039062 12.941406 L 15.558594 13.507812 L 12.546875 12.503906 C 12.289062 12.417969 11.894531 12.460938 11.679688 12.589844 L 10.019531 13.597656 C 9.800781 13.726562 9.800781 13.945312 10.019531 14.074219 L 18.003906 18.523438 C 18.089844 18.570312 18.222656 18.613281 18.304688 18.613281 L 13.550781 23.367188 L 13.507812 23.453125 L 11.414062 22.976562 C 11.285156 22.929688 11.066406 22.976562 10.933594 23.0625 L 9.976562 23.71875 C 9.84375 23.804688 9.84375 23.9375 9.933594 23.980469 L 12.199219 25.070312 C 12.070312 25.289062 12.070312 25.59375 12.289062 25.765625 L 12.679688 26.160156 C 12.722656 26.335938 12.8125 26.507812 12.941406 26.640625 C 13.074219 26.769531 13.246094 26.859375 13.421875 26.902344 L 13.816406 27.292969 C 13.988281 27.46875 14.292969 27.511719 14.511719 27.382812 L 15.601562 29.648438 C 15.644531 29.78125 15.777344 29.738281 15.863281 29.605469 L 16.519531 28.644531 C 16.605469 28.515625 16.652344 28.296875 16.605469 28.167969 L 16.125 26.117188 L 18.570312 23.671875 L 20.96875 21.277344 C 20.96875 21.402344 20.96875 21.492188 21.054688 21.578125 L 25.460938 29.519531 C 25.59375 29.78125 25.808594 29.78125 25.941406 29.5625 " fill-opacity="1" fill-rule="nonzero"/><g clip-path="url(#id1)"><path fill="#2aa79e" d="M 18.613281 33.488281 C 17.566406 33.488281 16.5625 33.402344 15.601562 33.183594 L 15.996094 34.144531 L 12.070312 33.792969 L 6.003906 29.738281 L 4.042969 25.199219 L 5.132812 24.898438 C 4.257812 22.976562 3.734375 20.882812 3.734375 18.65625 C 3.734375 17.566406 3.867188 16.519531 4.085938 15.515625 L 3.125 15.691406 L 5.085938 9.625 L 10.019531 4.828125 L 10.585938 6.09375 C 12.898438 4.609375 15.644531 3.734375 18.570312 3.734375 C 19.265625 3.734375 19.964844 3.777344 20.664062 3.867188 L 20.007812 2.558594 L 28.210938 4.785156 L 33.796875 12.503906 L 32.398438 13.117188 C 33.054688 14.816406 33.445312 16.652344 33.445312 18.613281 C 33.488281 26.816406 26.816406 33.488281 18.613281 33.488281 Z M 18.613281 0.988281 C 8.882812 0.988281 0.988281 8.882812 0.988281 18.613281 C 0.988281 28.34375 8.882812 36.238281 18.613281 36.238281 C 28.34375 36.238281 36.238281 28.34375 36.238281 18.613281 C 36.238281 8.882812 28.34375 0.988281 18.613281 0.988281 " fill-opacity="1" fill-rule="nonzero"/></g><path fill="#2aa79e" d="M 15.910156 19.789062 L 16.824219 18.875 L 15.167969 17.957031 L 15.078125 19.136719 L 15.910156 19.789062 " fill-opacity="1" fill-rule="nonzero"/><path fill="#2aa79e" d="M 23.890625 28.515625 L 20.664062 22.710938 L 20.097656 23.324219 L 21.011719 28.253906 L 23.890625 28.515625 " fill-opacity="1" fill-rule="nonzero"/><path fill="#2aa79e" d="M 19.265625 10.191406 L 17.695312 11.503906 C 17.785156 11.546875 17.828125 11.585938 17.914062 11.679688 L 18.746094 12.503906 C 19.046875 12.8125 19.222656 13.203125 19.222656 13.597656 C 19.222656 13.640625 19.222656 13.726562 19.222656 13.773438 L 21.277344 14.46875 L 24.023438 11.71875 L 24.632812 11.109375 L 24.71875 11.195312 C 25.765625 10.453125 27.46875 9.492188 28.558594 9.492188 C 29.125 9.492188 29.476562 9.710938 29.648438 9.886719 C 30.828125 11.066406 29.210938 13.640625 28.386719 14.859375 L 28.429688 14.90625 L 27.902344 15.515625 L 27.773438 15.601562 L 27.773438 15.644531 L 27.730469 15.691406 L 25.070312 18.351562 L 25.765625 20.398438 C 25.808594 20.398438 25.898438 20.398438 25.941406 20.398438 C 26.378906 20.398438 26.769531 20.578125 27.035156 20.882812 L 27.425781 21.277344 L 31.308594 17.738281 L 30.65625 13.945312 L 32.441406 13.203125 L 33.835938 12.589844 L 28.253906 4.828125 L 20.050781 2.601562 L 20.707031 3.910156 L 22.320312 7.050781 L 19.265625 10.191406 " fill-opacity="1" fill-rule="nonzero"/><path fill="#2aa79e" d="M 13.726562 28.253906 C 13.507812 28.167969 13.332031 28.078125 13.160156 27.902344 L 12.941406 27.644531 C 12.679688 27.558594 12.503906 27.425781 12.289062 27.25 C 12.113281 27.078125 11.980469 26.859375 11.894531 26.597656 L 11.679688 26.378906 C 11.589844 26.292969 11.503906 26.160156 11.414062 26.03125 L 9.191406 25.808594 L 7.488281 24.152344 L 5.132812 24.851562 L 4.042969 25.15625 L 6.003906 29.695312 L 12.070312 33.792969 L 15.996094 34.144531 L 15.601562 33.183594 L 14.382812 30.304688 L 13.726562 28.253906 " fill-opacity="1" fill-rule="nonzero"/><path fill="#2aa79e" d="M 7.707031 12.546875 L 9.101562 13.289062 C 9.191406 13.117188 9.367188 12.941406 9.539062 12.855469 L 11.195312 11.851562 C 11.285156 11.804688 11.328125 11.761719 11.414062 11.761719 L 12.460938 10.191406 L 10.585938 6.136719 L 10.019531 4.871094 L 5.085938 9.625 L 3.125 15.644531 L 4.085938 15.472656 L 6.832031 14.90625 L 7.707031 12.546875 " fill-opacity="1" fill-rule="nonzero"/></svg>